<?xml version="1.0" standalone="no"?>
<!DOCTYPE svg PUBLIC "-//W3C//DTD SVG 20010904//EN"
 "http://www.w3.org/TR/2001/REC-SVG-20010904/DTD/svg10.dtd">
<svg version="1.0" xmlns="http://www.w3.org/2000/svg"
 width="568.000000pt" height="86.000000pt" viewBox="0 0 568.000000 86.000000"
 preserveAspectRatio="xMidYMid meet">
<metadata>
Created by potrace 1.14, written by Peter Selinger 2001-2017
</metadata>
<g transform="translate(0.000000,86.000000) scale(0.100000,-0.100000)"
fill="#000000" stroke="none">
<path d="M3545 836 c-90 -45 -177 -158 -191 -246 -5 -32 -3 -41 10 -46 27 -10
39 11 40 71 1 55 2 57 67 120 70 68 117 87 168 68 22 -8 26 -14 24 -46 -2 -38
-32 -113 -63 -157 -9 -14 -33 -55 -52 -92 -20 -37 -45 -80 -57 -96 -37 -53
-91 -176 -91 -209 0 -38 34 -75 65 -71 17 3 20 9 17 46 -2 24 1 49 6 55 5 7
17 32 26 57 10 25 40 81 66 125 39 65 54 81 75 83 37 3 45 -28 45 -167 0 -122
-7 -145 -45 -154 -11 -3 23 -5 75 -5 52 0 86 3 75 5 -42 11 -45 21 -45 148 l0
123 34 21 c41 26 78 27 100 2 14 -15 16 -38 14 -147 -3 -126 -4 -129 -28 -141
-22 -11 -13 -13 70 -12 52 1 86 4 75 6 -42 11 -45 21 -45 149 l0 124 33 20
c43 27 82 26 101 -2 12 -17 16 -50 16 -144 0 -126 -3 -136 -45 -147 -11 -2 23
-5 75 -6 83 -1 92 1 70 12 -24 12 -25 16 -30 148 -6 144 -16 175 -61 200 -35
18 -89 3 -129 -36 l-37 -37 -7 26 c-8 34 -58 60 -101 52 -19 -4 -48 -20 -65
-36 -18 -17 -34 -30 -36 -30 -2 0 -4 16 -4 35 0 19 -3 35 -7 35 -5 0 -32 -9
-60 -20 -29 -11 -53 -18 -53 -15 0 3 19 42 41 87 28 56 43 100 46 138 5 52 3
60 -23 88 -41 45 -94 51 -159 18z"/>
<path d="M425 839 c-188 -22 -385 -155 -385 -258 0 -28 5 -34 44 -52 25 -11
64 -23 88 -28 135 -29 200 -59 206 -98 4 -25 -72 -111 -106 -120 -14 -3 -78
-30 -141 -59 -84 -39 -116 -58 -116 -71 0 -15 8 -18 52 -16 67 3 141 30 227
82 70 42 208 111 224 111 5 0 21 11 36 25 l26 24 0 -173 c0 -181 -2 -188 -45
-199 -11 -2 25 -5 80 -5 76 0 92 2 69 9 -24 7 -33 16 -38 40 -7 34 -8 139 -2
139 2 0 17 -7 32 -15 49 -25 106 -15 153 28 99 91 70 311 -45 333 -45 8 -74
-3 -111 -44 l-33 -36 0 42 c0 23 -1 42 -3 42 -2 0 -25 -7 -51 -16 -45 -16 -46
-17 -27 -31 15 -10 21 -25 21 -52 0 -36 -1 -38 -71 -69 -70 -31 -71 -31 -55
-7 21 32 21 88 -1 107 -29 23 -197 68 -261 68 -38 0 -102 25 -102 39 0 22 62
79 114 104 31 15 56 32 56 38 0 6 4 8 9 5 4 -3 32 4 62 15 39 15 80 21 146 22
89 2 94 1 120 -26 22 -22 25 -29 14 -36 -17 -11 -7 -41 12 -41 26 0 38 26 31
66 -9 62 -32 91 -78 103 -68 17 -88 18 -151 10z m353 -381 c29 -32 42 -71 42
-129 0 -59 -21 -113 -48 -128 -35 -19 -77 -13 -102 14 -21 22 -25 38 -28 119
l-4 92 32 27 c39 33 79 35 108 5z"/>
<path d="M1693 711 c-51 -20 -60 -28 -31 -27 31 1 35 -26 37 -245 1 -222 -2
-245 -38 -258 -20 -7 -3 -9 69 -9 52 0 85 3 72 5 -33 7 -43 35 -40 118 l3 75
55 -71 c76 -99 76 -100 54 -116 -15 -11 -6 -13 69 -13 51 0 87 4 87 10 0 6 -8
10 -18 10 -21 0 -69 49 -137 139 l-49 65 64 58 c34 32 77 62 94 67 25 7 16 9
-48 10 -73 1 -78 0 -60 -14 18 -14 16 -18 -46 -77 l-65 -62 -3 177 c-3 195 1
186 -69 158z"/>
<path d="M1040 518 c-58 -30 -90 -89 -90 -168 0 -65 30 -133 71 -163 38 -28
106 -32 149 -10 36 19 80 84 79 118 0 20 0 20 -12 1 -28 -46 -56 -66 -92 -66
-73 0 -135 59 -135 128 l0 32 121 0 122 0 -6 36 c-8 50 -32 83 -72 100 -48 20
-84 18 -135 -8z"/>
<path d="M1383 526 c-57 -26 -80 -85 -41 -109 23 -15 48 8 48 42 0 34 17 51
50 51 41 0 62 -22 64 -64 1 -37 0 -38 -62 -63 -88 -36 -132 -79 -132 -129 1
-91 84 -120 165 -58 32 24 35 25 35 7 0 -47 44 -55 89 -17 35 29 42 51 11 32
-33 -20 -40 4 -40 139 0 112 -2 124 -22 148 -29 33 -115 44 -165 21z m127
-210 c0 -60 -2 -66 -29 -85 -45 -32 -77 -27 -100 17 -18 34 5 72 64 104 28 15
53 28 58 28 4 0 7 -29 7 -64z"/>
<path d="M2113 522 c-38 -16 -76 -40 -43 -28 36 13 41 -6 38 -154 -3 -143 -3
-145 -28 -157 -22 -11 -14 -13 65 -13 79 0 87 2 65 13 l-25 13 -3 172 c-2 128
-6 172 -15 171 -6 0 -31 -8 -54 -17z"/>
<path d="M2323 522 c-51 -21 -60 -29 -31 -28 19 1 24 -6 30 -44 8 -58 10 -174
2 -222 -5 -28 -13 -40 -33 -47 -20 -7 -3 -9 69 -9 52 0 86 3 75 5 -42 11 -45
21 -45 148 l0 123 35 22 c44 27 85 23 102 -10 17 -34 18 -240 1 -262 -7 -9
-22 -18 -33 -21 -11 -3 21 -5 70 -5 50 0 83 2 75 5 -34 12 -40 36 -40 162 0
108 -3 131 -20 158 -34 56 -93 56 -155 2 l-35 -31 0 36 c0 41 -6 43 -67 18z"/>
<path d="M2794 526 c-34 -15 -72 -58 -80 -92 -8 -33 14 -92 42 -111 l24 -15
-30 -35 c-34 -38 -37 -58 -14 -84 15 -17 14 -21 -15 -54 -41 -47 -41 -79 1
-105 64 -39 180 -37 239 3 112 76 91 187 -35 187 -83 0 -147 11 -153 27 -11
27 23 46 85 47 110 3 166 77 127 169 -6 14 -2 17 29 17 25 0 36 4 36 15 0 11
-12 15 -49 15 -27 0 -65 7 -84 15 -44 18 -82 19 -123 1z m109 -38 c11 -14 22
-48 24 -75 4 -39 1 -53 -17 -75 -48 -61 -120 -19 -128 74 -3 44 0 58 18 81 29
36 74 34 103 -5z m73 -333 c49 -10 35 -67 -21 -91 -72 -30 -205 -6 -213 38 -2
9 4 29 14 43 17 26 18 26 108 20 50 -3 101 -8 112 -10z"/>
<path d="M4353 526 c-57 -26 -80 -85 -41 -109 23 -15 48 8 48 42 0 34 17 51
50 51 41 0 62 -22 64 -64 1 -37 0 -38 -62 -63 -88 -36 -132 -79 -132 -129 1
-91 84 -120 165 -58 32 24 35 25 35 7 0 -47 44 -55 89 -17 35 29 42 51 11 32
-33 -20 -40 4 -40 139 0 112 -2 124 -22 148 -29 33 -115 44 -165 21z m127
-210 c0 -60 -2 -66 -29 -85 -45 -32 -77 -27 -100 17 -18 34 5 72 64 104 28 15
53 28 58 28 4 0 7 -29 7 -64z"/>
<path d="M4744 526 c-34 -15 -72 -58 -80 -92 -8 -33 14 -92 42 -111 l24 -15
-30 -35 c-34 -38 -37 -58 -14 -84 15 -17 14 -21 -15 -54 -41 -47 -41 -79 1
-105 64 -39 180 -37 239 3 112 76 91 187 -35 187 -83 0 -147 11 -153 27 -11
27 23 46 85 47 110 3 166 77 127 169 -6 14 -2 17 29 17 25 0 36 4 36 15 0 11
-12 15 -49 15 -27 0 -65 7 -84 15 -44 18 -82 19 -123 1z m109 -38 c11 -14 22
-48 24 -75 4 -39 1 -53 -17 -75 -48 -61 -120 -19 -128 74 -3 44 0 58 18 81 29
36 74 34 103 -5z m73 -333 c49 -10 35 -67 -21 -91 -72 -30 -205 -6 -213 38 -2
9 4 29 14 43 17 26 18 26 108 20 50 -3 101 -8 112 -10z"/>
<path d="M5130 518 c-58 -30 -90 -89 -90 -168 0 -65 30 -133 71 -163 38 -28
106 -32 149 -10 36 19 80 84 79 118 0 20 0 20 -12 1 -28 -46 -56 -66 -92 -66
-73 0 -135 59 -135 128 l0 32 121 0 122 0 -6 36 c-8 50 -32 83 -72 100 -48 20
-84 18 -135 -8z"/>
<path d="M5454 524 c-51 -25 -70 -96 -39 -141 9 -12 43 -37 76 -54 73 -39 101
-71 90 -102 -10 -27 -49 -42 -85 -33 -28 7 -61 35 -83 72 -10 16 -12 10 -12
-41 l-1 -60 68 -2 c37 -1 82 3 99 8 69 22 95 102 50 154 -12 15 -54 43 -92 63
-60 32 -70 41 -73 67 -7 59 69 76 119 26 16 -16 29 -37 29 -45 0 -9 5 -16 10
-16 6 0 10 26 10 58 l0 57 -68 2 c-43 1 -79 -4 -98 -13z"/>
</g>
</svg>
